<svg width="557" height="373" viewBox="0 0 557 373" fill="none" xmlns="http://www.w3.org/2000/svg">
<path d="M401.276 103.09C398.366 98.6892 404.782 94.4427 401.872 90.0471C398.963 85.6467 392.542 89.898 389.633 85.4976C386.723 81.0972 393.139 76.8507 390.224 72.4552C387.315 68.0596 380.899 72.3061 377.985 67.9057C375.071 63.5053 381.491 59.2588 378.577 54.8584C375.667 50.458 369.247 54.7045 366.337 50.3089C363.423 45.9085 369.843 41.662 366.929 37.2616C364.014 32.8612 357.599 37.1077 354.689 32.7073" stroke="#3365E6" stroke-width="1.44275" stroke-linecap="round" stroke-linejoin="round"/>
<path d="M398.044 80.222C395.134 75.8216 401.549 71.575 398.64 67.1795C395.73 62.7791 389.31 67.0304 386.401 62.63C383.491 58.2296 389.906 53.9831 386.992 49.5875C384.082 45.1919 377.667 49.4384 374.753 45.038C371.843 40.6376 378.259 36.3911 375.344 31.9907C372.43 27.5903 366.014 31.8368 363.105 27.4412C360.19 23.0408 366.611 18.7943 363.696 14.3939C360.782 9.99349 354.367 14.24 351.457 9.8396" stroke="#3365E6" stroke-width="1.44275" stroke-linecap="round" stroke-linejoin="round"/>
<path d="M45.3909 327.337C34.3298 317.993 49.8153 263.76 89.8517 240.204C118.163 223.545 163.509 219.428 190.147 246.384C204.108 260.513 216.968 287.272 207.398 301.185C193.687 321.119 149.649 291.826 86.4228 313.419C61.5064 321.927 51.2725 332.31 45.3909 327.337Z" fill="#3365E6"/>
<path d="M108.127 263.557C111.609 262.591 120.131 260.369 119.746 260.297C119.385 260.172 105.29 259.244 99.0185 259.095C93.3918 256.209 87.3851 252.929 81.2101 249.515C85.4566 249.019 91.7518 248.375 91.4392 248.269C91.1122 248.11 78.8488 245.562 72.0919 244.451C69.2737 242.888 66.4556 241.315 63.6374 239.752C67.7011 239.132 72.4334 238.463 72.1544 238.381C71.8803 238.29 63.6037 236.895 56.8276 235.996C56.8276 235.996 56.8276 235.996 56.8228 235.996C52.7013 233.731 48.6424 231.519 44.6844 229.393C48.7626 228.619 53.4467 227.772 53.1726 227.7C52.8985 227.623 45.1797 226.676 38.4902 226.084C17.0509 214.706 0.329332 206.881 0.343759 206.838C0.329332 206.881 21.206 203.063 47.0313 202.125C53.1534 204.318 60.2181 207.103 60.4922 207.175C60.7663 207.242 57.4143 204.352 54.4807 201.933C59.2225 201.865 64.0654 201.889 68.9371 202.038C68.9419 202.038 68.9419 202.038 68.9419 202.038C75.1361 204.573 82.6962 207.963 82.9703 208.06C83.2492 208.141 79.8732 205.001 76.9636 202.394C80.2723 202.587 83.5618 202.837 86.8224 203.149C92.9926 205.91 104.169 211.493 104.496 211.652C104.809 211.758 100.336 207.29 97.3016 204.39C104.337 205.386 111.046 206.699 117.13 208.305C122.035 212.282 133.029 221.92 133.337 222.194C133.669 222.401 128.787 214.432 126.777 211.267C128.297 211.811 129.749 212.369 131.134 212.95C135.794 214.913 140.257 217.086 144.475 219.419H144.48C149.135 224.555 157.83 234.765 158.09 235.053C158.34 235.284 155.555 229.032 153.694 224.993C159.883 229.085 165.4 233.49 170.122 237.987C170.127 237.987 170.132 238.002 170.137 238.002C173.859 244.465 179.096 253.978 179.284 254.271C179.457 254.516 178.303 249.693 177.278 245.528C186.478 256.435 190.681 266.929 188.224 273.83C185.742 280.774 177.052 282.866 164.51 281.337C167.66 279.548 171.262 277.509 171.002 277.504C170.714 277.485 161.648 278.716 155.257 279.736C155.252 279.736 155.243 279.736 155.238 279.736C149.366 278.476 142.926 276.662 136.083 274.393C139.853 273.084 145.562 271.142 145.249 271.089C144.917 270.997 132.664 270.776 126.137 270.887H126.133C121.67 269.228 117.082 267.41 112.422 265.447C111.041 264.866 109.613 264.231 108.142 263.548L108.127 263.557ZM177.288 268.684C177.928 269.064 178.649 268.814 178.899 268.117C179.144 267.424 178.827 266.544 178.187 266.169C144.523 246.187 108.497 230.658 71.0243 219.9C70.3077 219.693 69.5286 220.097 69.2834 220.789C69.0333 221.487 69.4084 222.213 70.1298 222.42C107.603 233.178 143.624 248.712 177.293 268.689L177.288 268.684Z" fill="#00CA64"/>
<path d="M510.204 204.688C510.204 120.475 438.691 69.5503 313.643 69.5503C188.595 69.5503 117.082 120.475 117.082 204.688C117.082 288.902 188.595 339.826 313.643 339.826C438.691 339.826 510.204 288.907 510.204 204.688Z" fill="white"/>
<path d="M446.212 334.69C436.43 334.459 420.646 294.928 433.631 262.629C445.37 233.423 476.433 220.568 481.67 218.399C489.456 215.177 496.41 213.556 501.498 212.681C501.739 218.981 501.45 228.34 498.449 238.987C493.116 257.902 483.555 265.505 472.143 282.833C451.199 314.641 453.238 334.854 446.217 334.685L446.212 334.69Z" fill="#C4FA36"/>
<path d="M449.439 339.35C442.904 315.848 449.637 291.066 466.902 275.893C488.533 256.873 516.167 262.197 520.105 263.029C540.602 267.338 552.731 280.616 556.554 285.175C550.197 286.978 541.391 288.71 530.873 288.488C514.359 288.142 501.561 283.145 494.222 279.577C498.762 283.468 506.034 288.748 516.095 292.552C528.844 297.371 540.097 297.563 546.647 297.169C541.122 300.353 529.685 305.941 514.219 306.431C495.699 307.018 482.074 299.953 476.573 296.693C479.867 301.324 488.408 311.991 503.687 318.103C522.558 325.654 539.284 321.287 544.358 319.753C539.337 325.962 530.229 335.363 516.104 341.563C484.734 355.331 454.739 341.846 449.439 339.355V339.35Z" fill="#00CA64"/>
<path d="M459.756 316.454C463.103 319.546 469.48 324.581 478.872 327.346C492.78 331.444 504.534 327.981 508.882 326.457" stroke="#191A19" stroke-width="1.44275" stroke-linecap="round" stroke-linejoin="round"/>
<path d="M482.652 282.886C485.124 285.387 488.491 288.286 492.877 290.888C501.067 295.745 508.891 297.26 513.773 297.78" stroke="#191A19" stroke-width="1.44275" stroke-linecap="round" stroke-linejoin="round"/>
<path d="M497.546 271.993C502.764 270.954 511.877 269.853 522.664 272.435C530.513 274.316 536.51 277.485 540.449 279.995" stroke="#191A19" stroke-width="1.44275" stroke-linecap="round" stroke-linejoin="round"/>
<path d="M214.478 89.7394L215.891 78.2455L223.528 79.1881C223.442 80.4433 222.831 82.1505 222.158 83.7231C221.316 83.4683 220.215 83.2951 219.441 83.8626C218.508 84.5359 218.777 85.7526 218.07 87.0751C217.604 87.9552 216.646 89.0084 214.478 89.7394Z" fill="#4BCDBC"/>
<path d="M223.533 79.1881L215.896 78.2455L216.074 76.8124C216.074 76.8124 218.527 77.2933 221.331 77.3943C222.615 77.4376 222.831 77.3606 223.105 77.5867C223.481 77.8944 223.596 78.4619 223.533 79.1833V79.1881Z" fill="#4BCDBC"/>
<path d="M215.752 76.7065L214.155 89.6961" stroke="white" stroke-width="1.44275" stroke-linecap="round" stroke-linejoin="round"/>
<path d="M283.773 29.6823C284.682 29.5861 286.14 29.4226 287.948 29.1774C291.598 28.6868 292.045 28.4896 293.132 28.7638C294.671 29.1533 294.416 29.7064 297.306 30.875C298.384 31.3126 299.057 31.4906 299.144 31.9763C299.235 32.4957 298.552 32.866 297.215 34.0394C295.128 35.8765 295.344 36.2613 294.185 36.8384C293.7 37.0788 292.04 37.906 290.607 37.1606C290.083 36.8865 289.746 36.4873 289.554 36.1988C288.116 36.2757 286.678 36.3527 285.24 36.4296" fill="#98620D"/>
<path d="M253.018 44.7974C250.205 47.0721 248.882 49.3757 248.223 50.8569C245.27 57.4744 247.497 65.6115 247.863 66.8715C248.074 67.5929 248.719 69.6512 248.858 72.479C248.93 73.9314 248.844 75.1144 248.767 75.8262C247.805 76.2831 246.314 76.8938 244.424 77.2738C239.278 78.3077 236.008 76.6534 227.957 75.7348C226.563 75.5761 224.562 75.3837 222.129 75.2924C221.72 78.5482 221.311 81.7992 220.897 85.055C221.34 85.1368 222.893 85.4253 223.341 85.5071C241.851 88.936 244.366 89.4939 248.618 89.9171C251.753 90.2297 256.332 90.5231 261.987 90.273C263.093 86.6757 264.156 82.9149 265.137 78.9906C267.34 70.2043 268.835 61.8892 269.84 54.2041" fill="#3365E6"/>
<path d="M297.527 89.5854H285.946V81.8907C287.201 81.8234 288.971 82.2226 290.616 82.6987C290.467 83.5643 290.428 84.6801 291.087 85.3774C291.871 86.219 293.045 85.8054 294.444 86.344C295.377 86.6999 296.536 87.5223 297.527 89.5854Z" fill="#4BCDBC"/>
<path d="M285.947 81.8909V89.5856H284.504C284.504 89.5856 284.682 87.0944 284.437 84.2955C284.321 83.0162 284.22 82.8094 284.413 82.5113C284.672 82.1025 285.221 81.9197 285.947 81.8909Z" fill="#4BCDBC"/>
<path d="M284.437 89.9172H297.522" stroke="white" stroke-width="1.44275" stroke-linecap="round" stroke-linejoin="round"/>
<path d="M265.325 67.1411C267.46 67.2901 270.788 67.2661 274.645 66.1456C278.728 64.9577 281.676 63.0436 283.422 61.7115C282.629 64.5489 281.797 68.8291 282.157 74.0134C282.422 77.8174 283.244 80.9819 284.057 83.3336C286.288 83.4249 288.52 83.5163 290.751 83.6029C291.91 82.088 293.594 79.4814 294.368 75.913C296.729 65.0875 288.332 56.6619 287.943 56.2819C281.749 50.256 274.011 49.9675 272.111 49.9482" fill="#3365E6"/>
<path d="M297.643 68.0981C299.191 69.6995 300.567 70.9691 301.62 71.9021C303.289 73.3785 304.38 74.1865 306.568 75.8072C308.55 77.274 309.391 77.7885 310.623 77.9424C311.18 78.0098 312.45 78.1492 313.633 77.3894C314.754 76.668 315.667 75.206 315.345 74.0085C315.23 73.5949 315.013 73.3737 314.407 72.7389C313.821 72.1329 312.941 71.2096 311.83 70.0169C313.638 71.3731 315.456 71.6665 316.254 70.9307C316.418 70.7816 316.629 70.5026 316.711 69.9688C314.864 69.031 312.21 67.7326 309.271 66.4581C308.473 66.1119 307.391 65.655 305.881 65.4241C304.452 65.2077 303.24 65.2895 302.418 65.3953C300.826 66.2946 299.234 67.1939 297.647 68.0981H297.643Z" fill="#7A4E0A"/>
<path d="M283.729 35.4292C284.297 35.3282 284.898 36.29 289.347 45.2303C291.03 48.616 292.424 51.4534 293.42 53.4877C296.979 57.3398 300.537 61.1968 304.101 65.0489C303.659 66.1166 303.163 67.6603 303 69.5648C302.88 70.945 302.971 72.1473 303.11 73.0899C301.273 71.801 298.696 69.8677 295.844 67.2564C290.89 62.7165 286.019 58.2536 283.624 51.6217C280.873 44.004 282.186 35.7129 283.734 35.4388L283.729 35.4292Z" fill="#00CA64"/>
<path d="M295.449 70.286C296.998 71.8875 298.373 73.1571 299.426 74.0901C301.095 75.5665 302.187 76.3745 304.375 77.9951C306.356 79.4619 307.198 79.9765 308.429 80.1304C308.987 80.1978 310.257 80.3372 311.44 79.5774C312.56 78.856 313.474 77.394 313.152 76.1965C313.036 75.7829 312.82 75.5617 312.214 74.9269C311.627 74.3209 310.747 73.3976 309.636 72.2049C311.445 73.5611 313.262 73.8544 314.061 73.1186C314.224 72.9696 314.436 72.6906 314.518 72.1568C312.671 71.219 310.016 69.9205 307.078 68.6461C306.279 68.2998 305.197 67.843 303.687 67.6121C302.259 67.3957 301.047 67.4775 300.225 67.5833C298.633 68.4826 297.041 69.3819 295.454 70.286H295.449Z" fill="#98620D"/>
<path d="M284.283 29.4849C280.619 26.4984 273.15 30.038 267.658 32.5676C259.492 36.3284 254.033 41.4742 250.922 44.8983C253.403 48.7216 255.938 51.5013 257.857 53.3769C261.608 57.0319 264.796 60.052 268.649 59.6529C270.154 59.4942 271.313 58.8594 272.279 58.3304C275.444 56.5991 277.132 53.9973 277.897 52.6074C279.527 54.8629 281.354 57.1858 283.403 59.5423C288.583 65.5057 293.887 70.1994 298.706 73.8544C299.134 72.5752 299.788 71.0458 300.798 69.4492C301.269 68.7038 301.755 68.0449 302.231 67.4678C298.672 63.505 295.113 59.5423 291.55 55.5747C290.593 53.8963 289.241 51.2657 288.135 47.8656C284.793 37.5836 287.558 32.154 284.283 29.4801V29.4849Z" fill="#C4FA36"/>
<path d="M286.067 29.4514C285.61 28.2299 287.793 26.4072 289.096 25.3251C291.41 23.3918 292.751 22.252 294.372 22.4829C296.517 22.7859 296.421 24.8971 299.6 26.7967C302.37 28.4511 304.5 28.0711 304.693 29.1821C304.923 30.4998 302.11 32.0243 301.85 32.1638C301.259 32.4812 300.263 33.0246 298.96 33.0342C298.369 33.039 298.066 32.9765 297.859 32.8851C297.161 32.5918 297.003 32.0531 296.522 31.6299C296.127 31.2789 295.435 30.9326 294.141 31.0144C294.43 30.5671 294.411 29.9996 294.108 29.6053C293.747 29.134 293.122 29.0811 292.703 29.2302C292.088 29.4514 291.689 30.1872 291.847 30.9807C291.39 31.2019 290.698 31.4424 289.924 31.3029C289.404 31.2067 289.178 30.9951 288.452 30.6008C286.764 29.6822 286.235 29.9034 286.067 29.4562V29.4514Z" fill="#1C0526"/>
<path d="M238.134 194.589C249.055 194.589 257.909 201.158 257.909 209.257C257.909 213.407 255.586 217.149 251.854 219.818C251.743 219.89 251.633 219.962 251.532 220.049C250.099 221.141 249.171 222.867 249.171 224.805C249.171 228.109 251.849 230.788 255.153 230.788H288.918C291.765 230.788 294.093 233.115 294.093 235.962V270.651C294.093 273.955 291.414 276.634 288.111 276.634C286.168 276.634 284.446 275.705 283.354 274.272C283.277 274.167 283.205 274.051 283.123 273.95C280.459 270.213 276.713 267.895 272.562 267.895C264.464 267.895 257.894 276.749 257.894 287.671C257.894 298.592 264.464 307.441 272.562 307.441C276.722 307.441 280.478 305.109 283.143 301.353C283.2 301.266 283.258 301.18 283.325 301.098C284.412 299.646 286.148 298.703 288.111 298.703C291.414 298.703 294.093 301.382 294.093 304.686V338.658C294.093 341.505 291.765 343.832 288.918 343.832H187.353C184.506 343.832 182.179 341.505 182.179 338.658V235.958C182.179 233.111 184.506 230.783 187.353 230.783H221.114C224.418 230.783 227.096 228.104 227.096 224.8C227.096 222.843 226.159 221.102 224.701 220.015C224.62 219.953 224.533 219.89 224.447 219.832C220.695 217.168 218.358 213.412 218.358 209.252C218.358 201.154 227.207 194.584 238.129 194.584L238.134 194.589Z" fill="#272927"/>
<path d="M305.192 287.882C305.192 276.961 311.762 268.107 319.86 268.107C324.011 268.107 327.752 270.43 330.421 274.162C330.493 274.272 330.566 274.383 330.652 274.484C331.744 275.917 333.47 276.845 335.408 276.845C338.712 276.845 341.391 274.167 341.391 270.863V237.098C341.391 234.25 343.719 231.923 346.566 231.923H381.254C384.558 231.923 387.237 234.602 387.237 237.905C387.237 239.848 386.309 241.57 384.876 242.662C384.77 242.739 384.654 242.811 384.553 242.893C380.817 245.557 378.499 249.303 378.499 253.454C378.499 261.552 387.352 268.122 398.274 268.122C409.196 268.122 418.045 261.552 418.045 253.454C418.045 249.294 415.712 245.538 411.956 242.873C411.87 242.816 411.783 242.758 411.701 242.691C410.249 241.604 409.306 239.868 409.306 237.905C409.306 234.602 411.985 231.923 415.289 231.923H449.261C452.108 231.923 454.436 234.25 454.436 237.098V338.663C454.436 341.51 452.108 343.837 449.261 343.837H346.561C343.714 343.837 341.386 341.51 341.386 338.663V304.902C341.386 301.598 338.707 298.92 335.404 298.92C333.446 298.92 331.705 299.857 330.618 301.314C330.556 301.396 330.493 301.483 330.436 301.569C327.771 305.321 324.015 307.658 319.855 307.658C311.757 307.658 305.188 298.809 305.188 287.887L305.192 287.882Z" fill="#3365E6"/>
<path d="M407.354 206.886C396.928 210.128 386.521 206.487 384.112 198.749C382.88 194.786 383.982 190.521 386.757 186.87C386.843 186.769 386.925 186.664 386.997 186.558C388.041 185.091 388.416 183.167 387.839 181.316C386.858 178.161 383.506 176.401 380.351 177.382L348.11 187.409C345.393 188.255 342.474 186.721 341.632 184.004L331.331 150.883C330.35 147.728 332.11 144.376 335.265 143.395C337.116 142.818 339.04 143.193 340.507 144.237C340.613 144.319 340.718 144.401 340.819 144.477C344.474 147.252 348.74 148.358 352.698 147.123C360.431 144.718 364.077 134.311 360.835 123.88C357.594 113.449 348.692 106.951 340.954 109.356C336.982 110.592 334.091 113.934 332.658 118.311C332.629 118.412 332.6 118.508 332.562 118.609C331.956 120.321 330.576 121.735 328.705 122.317C325.55 123.298 322.198 121.538 321.217 118.383L311.127 85.945C310.281 83.2278 311.815 80.3086 314.532 79.467L411.519 49.3086C414.236 48.4622 417.155 49.9963 417.997 52.7135L448.492 150.782C449.339 153.5 447.804 156.419 445.087 157.26L412.851 167.287C409.696 168.269 407.936 171.62 408.917 174.775C409.499 176.646 410.913 178.026 412.625 178.632C412.721 178.671 412.822 178.7 412.923 178.728C417.3 180.162 420.642 183.052 421.878 187.024C424.283 194.757 417.781 203.659 407.354 206.905V206.886Z" fill="#00CA64"/>
<path d="M336.904 146.233C336.904 157.154 330.335 166.008 322.236 166.008C318.086 166.008 314.345 163.685 311.675 159.953C311.603 159.843 311.531 159.732 311.445 159.631C310.353 158.198 308.626 157.27 306.688 157.27C303.384 157.27 300.706 159.948 300.706 163.252V197.018C300.706 199.865 298.378 202.192 295.531 202.192H260.842C257.539 202.192 254.86 199.514 254.86 196.21C254.86 194.267 255.788 192.545 257.221 191.453C257.327 191.376 257.442 191.304 257.543 191.223C261.28 188.558 263.598 184.812 263.598 180.662C263.598 172.563 254.744 165.994 243.823 165.994C232.901 165.994 224.052 172.563 224.052 180.662C224.052 184.822 226.385 188.577 230.141 191.242C230.227 191.299 230.314 191.357 230.396 191.425C231.848 192.511 232.79 194.247 232.79 196.21C232.79 199.514 230.112 202.192 226.808 202.192H192.836C189.989 202.192 187.661 199.865 187.661 197.018V95.4525C187.661 92.6055 189.989 90.2778 192.836 90.2778H295.536C298.383 90.2778 300.711 92.6055 300.711 95.4525V129.213C300.711 132.517 303.389 135.196 306.693 135.196C308.65 135.196 310.391 134.258 311.478 132.801C311.541 132.719 311.603 132.632 311.661 132.546C314.325 128.795 318.081 126.457 322.241 126.457C330.34 126.457 336.909 135.306 336.909 146.228L336.904 146.233Z" fill="#4BCDBC"/>
<path d="M91.6514 160.828C89.795 160.28 87.9868 159.621 86.2314 158.861" stroke="#3365E6" stroke-width="1.44275" stroke-linecap="round" stroke-linejoin="round"/>
<path d="M82.1245 156.846C67.2016 148.628 57.0879 132.748 57.0879 114.502C57.0879 87.8202 78.7148 66.1934 105.396 66.1934C114.332 66.1934 122.704 68.622 129.884 72.8493" stroke="#3365E6" stroke-width="1.44275" stroke-linecap="round" stroke-linejoin="round"/>
<path d="M131.832 74.0612C133.443 75.1192 134.992 76.2686 136.458 77.5045" stroke="#3365E6" stroke-width="1.44275" stroke-linecap="round" stroke-linejoin="round"/>
<path d="M429.486 30.6873C439.624 6.00656 467.849 -5.78074 492.525 4.35701C517.206 14.4948 528.993 42.7198 518.855 67.3957C514.364 78.3366 506.313 86.7431 496.594 91.8312" stroke="#3365E6" stroke-width="1.44275" stroke-linecap="round" stroke-linejoin="round"/>
<path d="M101.077 152.85C97.4317 152.667 90.872 151.811 84.2979 147.608C80.3784 145.102 73.4724 140.683 73.1117 133.628C72.8472 128.395 76.1704 121.696 80.8016 121.393C85.3847 121.095 90.2853 127.121 89.1888 129.78C88.3087 131.916 83.4899 132.07 80.4505 131.526C71.6449 129.958 67.1387 120.677 66.8213 119.994C62.9259 111.669 65.0179 101.05 71.7171 92.3794" stroke="#272927" stroke-width="1.44275" stroke-linecap="round" stroke-linejoin="round"/>
<path d="M288.313 32.6494C288.294 33.1832 288.342 34.1691 288.876 35.2271C289.164 35.7994 289.515 36.2274 289.799 36.5208" stroke="#191A19" stroke-width="1.44275" stroke-linecap="round" stroke-linejoin="round"/>
<path d="M297.268 27.1094C298.061 27.3498 298.975 27.5711 299.985 27.725C301.966 28.0231 303.707 27.9606 305.058 27.7971" stroke="#191A19" stroke-width="1.44275" stroke-linecap="round" stroke-linejoin="round"/>
<path d="M298.225 26.7969C298.835 26.9411 299.98 27.1287 301.341 26.7969C302.245 26.5756 302.933 26.1957 303.385 25.9023" stroke="#191A19" stroke-width="1.44275" stroke-linecap="round" stroke-linejoin="round"/>
<path d="M277.896 52.6075C277.391 51.1599 276.881 49.2699 276.66 47.0241C276.371 44.1001 276.66 41.633 277.016 39.8728" stroke="#191A19" stroke-width="1.44275" stroke-linecap="round" stroke-linejoin="round"/>
<path d="M290.982 55.6951C290.385 55.6951 289.428 55.7672 288.346 56.1952C287.351 56.5896 286.639 57.1282 286.211 57.5129" stroke="#191A19" stroke-width="1.44275" stroke-linecap="round" stroke-linejoin="round"/>
<path d="M269.35 67.117C268.182 67.2469 266.686 67.2854 264.988 67.0257C261.814 66.5399 259.468 65.2366 258.111 64.3325" stroke="#191A19" stroke-width="1.44275" stroke-linecap="round" stroke-linejoin="round"/>
<path d="M248.608 48.2361C248.743 48.7314 249.109 49.7894 250.085 50.7369C250.883 51.5111 251.725 51.8622 252.201 52.0209C251.561 53.026 250.917 54.0311 250.277 55.0315" stroke="#191A19" stroke-width="1.44275" stroke-linecap="round" stroke-linejoin="round"/>
<path d="M248.858 72.479C248.694 73.0705 247.516 77.5527 249.522 79.2407C249.704 79.3946 250.358 79.9428 251.075 79.7986C251.998 79.6158 252.744 78.3414 252.508 77.6825C252.234 76.9179 250.426 76.4418 244.424 77.2737" stroke="#191A19" stroke-width="1.44275" stroke-linecap="round" stroke-linejoin="round"/>
<path d="M298.575 75.1C298.768 74.0276 299.143 72.5944 299.898 71.017C300.643 69.4637 301.518 68.2854 302.221 67.4727" stroke="#191A19" stroke-width="1.44275" stroke-linecap="round" stroke-linejoin="round"/>
<path d="M151.958 224.805C152.314 225.599 151.616 226.181 151.847 228.34C151.919 228.994 151.958 229.355 152.097 229.855C152.429 231.019 152.915 231.562 152.684 231.908C152.588 232.053 152.342 232.197 151.655 232.11C151.52 232.466 151.332 232.947 151.102 233.515C150.351 235.376 150.111 235.813 149.755 235.847C149.673 235.857 149.572 235.847 148.947 235.414C148.437 235.063 148.038 234.746 147.769 234.525C146.442 235.371 145.061 236.607 144.734 238.329C144.407 240.06 145.345 241.18 144.797 241.671C143.998 242.378 141.026 240.926 139.319 238.632C138.295 237.251 137.924 235.842 137.775 235.005C138.829 234.467 140.185 233.548 140.916 231.985C141.772 230.163 141.127 229.162 141.82 227.128C142.435 225.32 144.056 223.968 145.624 223.401C148.038 222.53 151.236 223.189 151.962 224.796L151.958 224.805Z" fill="#FFC669"/>
<path d="M153.357 224.069C153.059 221.982 150.279 220.482 148.153 219.991C147.615 219.866 143.7 218.991 141.497 221.328C140.242 222.66 140.156 224.56 140.132 225.036C140.026 227.296 141.238 228.013 140.853 230.22C140.617 231.567 139.987 232.355 140.343 232.682C140.704 233.019 141.709 232.524 142.618 232.076C143.892 231.446 144.715 231.182 144.7 230.754C144.686 230.417 144.09 230.456 143.815 229.917C143.469 229.234 143.955 228.306 144.359 227.825C144.441 227.729 145.099 226.95 145.58 227.133C145.85 227.234 145.951 227.594 146.124 228.191C146.244 228.609 146.292 228.97 146.316 229.225C146.759 228.667 147.302 227.849 147.701 226.762C147.932 226.137 148.062 225.565 148.139 225.074C150.159 226.455 152.111 226.671 152.929 225.844C153.511 225.257 153.39 224.276 153.362 224.064L153.357 224.069Z" fill="#C4FA36"/>
<path d="M147.765 234.529C147.491 234.366 147.183 234.149 146.865 233.861C146.308 233.356 145.952 232.827 145.73 232.428" stroke="#191A19" stroke-width="1.44275" stroke-linecap="round" stroke-linejoin="round"/>
<path d="M166.482 336.676C166.443 338.908 166.41 341.139 166.371 343.375C171.248 343.265 176.119 343.154 180.996 343.039C180.005 341.394 178.904 340.61 177.879 340.259C175.999 339.62 174.677 340.538 173.147 339.735C172.003 339.129 171.387 337.893 171.046 336.647" fill="#0032C8"/>
<path d="M117.534 334.613C117.534 334.613 116.476 336.167 114.446 339.144C116.038 340.682 117.63 342.217 119.222 343.756L129.638 343.837C129.489 342.928 129.114 341.606 128.032 340.75C126.719 339.711 125.681 340.408 123.916 339.394C122.247 338.432 122.757 337.571 120.703 336.224C119.409 335.373 117.534 334.618 117.534 334.618V334.613Z" fill="#0032C8"/>
<path d="M173.268 256.796C174.667 256.209 175.595 255.478 176.168 254.944C176.923 254.237 177.533 253.424 178.173 252.568C178.529 252.097 178.808 251.688 179.005 251.395C179.12 251.501 179.471 251.847 179.558 252.415C179.683 253.208 179.197 253.78 179.125 253.862C179.587 253.809 180.207 253.703 180.914 253.468C181.698 253.208 182.035 252.977 182.41 253.136C182.963 253.367 183.083 254.242 183.117 254.492C183.324 256.017 182.309 257.277 182.174 257.44C181.058 258.782 179.438 259.061 177.586 259.383C176.076 259.648 174.787 259.633 173.883 259.566" fill="#FFC669"/>
<path d="M126.138 274.407C124.835 280.894 125.95 285.478 126.715 287.752C127.547 290.224 128.855 292.638 129.124 293.129C130.966 296.491 132.149 297.385 133.621 300.03C134.535 301.67 135.631 304.123 136.271 307.494C134.559 308.648 132.034 310.577 129.61 313.515C126.874 316.829 125.902 319.43 123.19 324.509C121.872 326.976 119.857 330.559 117.087 334.81C118.828 336.205 120.569 337.595 122.31 338.989C130.149 329.857 137.983 320.724 145.822 311.587C146.495 309.403 147.467 305.123 146.303 300.03C145.716 297.462 144.754 295.413 143.893 293.932C146.149 296.486 148.948 299.294 152.367 302.084C154.834 304.099 157.224 305.782 159.446 307.191C159.388 308.908 159.413 311.51 159.913 314.616C160.6 318.935 161.774 321.527 162.813 324.716C163.808 327.765 164.986 332.271 165.482 338.177C167.805 338.138 170.123 338.1 172.445 338.061C171.748 326.495 171.051 314.929 170.358 303.358C167.574 298.712 164.169 293.639 160.028 288.387C154.983 281.991 149.919 276.691 145.288 272.373C138.906 273.051 132.524 273.729 126.143 274.407H126.138Z" fill="#00CA64"/>
<path d="M138.435 234.423C139.844 234.433 140.839 235.14 142.614 236.395C144.802 237.949 146.529 240.06 150.275 248.466C151.15 250.433 152.285 253.069 153.526 256.243C156.594 256.56 159.211 256.772 161.23 256.911C166.04 257.248 167.559 257.2 169.194 256.94C171.45 256.584 173.239 255.935 174.417 255.43C175.153 257.132 175.889 258.835 176.625 260.537C173.513 261.956 168.925 263.634 163.164 264.365C157.715 265.058 153.093 264.664 149.818 264.135C150.001 266.01 150.102 268.112 150.049 270.401C150.011 272.195 149.881 273.864 149.703 275.393C146.428 276.1 142.071 276.715 136.934 276.552C131.976 276.398 127.792 275.561 124.633 274.696C124.176 270.983 123.825 265.14 125.099 258.214C126.801 248.933 132.024 234.38 138.445 234.423H138.435Z" fill="#4BCDBC"/>
<path d="M149.808 264.134C148.952 263.447 148.101 262.759 147.245 262.071C145.744 260.72 143.739 258.609 142.003 255.608C140.017 252.174 139.185 248.981 138.81 246.86" stroke="#191A19" stroke-width="1.44275" stroke-linecap="round" stroke-linejoin="round"/>
<path d="M142.787 215.341C143.412 218.356 141.479 221.304 138.464 221.929C135.448 222.555 132.5 220.621 131.875 217.606C131.25 214.591 133.183 211.643 136.199 211.017C139.214 210.392 142.162 212.325 142.787 215.341Z" fill="#C4FA36"/>
<path d="M153.521 256.243C153.03 256.334 152.092 256.584 151.227 257.344C150.808 257.709 150.524 258.094 150.332 258.402" stroke="#191A19" stroke-width="1.44275" stroke-linecap="round" stroke-linejoin="round"/>
<path d="M141.459 220.621C136.732 220.636 135.64 221.073 135.577 221.487C135.481 222.107 137.554 223.564 139.463 222.862C140.954 222.314 141.416 220.79 141.464 220.621H141.459Z" stroke="#3365E6" stroke-width="1.44275" stroke-linecap="round" stroke-linejoin="round"/>
<path d="M141.142 220.9C141.752 216.211 142.32 215.182 142.743 215.172C143.373 215.158 144.556 217.394 143.618 219.198C142.887 220.607 141.32 220.871 141.142 220.9Z" stroke="#3365E6" stroke-width="1.44275" stroke-linecap="round" stroke-linejoin="round"/>
<path d="M174.408 253.771C174.466 254.742 174.629 256.089 175.1 257.628C175.552 259.09 176.615 261.797 177.375 261.677C177.875 261.595 178.351 260.576 178.068 260.21C177.582 259.585 175.028 261.235 171.45 262.533C169.469 263.254 166.588 264.077 162.842 264.409" stroke="#191A19" stroke-width="1.44275" stroke-linecap="round" stroke-linejoin="round"/>
<path d="M159.441 307.191C154.93 304.772 149.222 300.872 144.254 294.649C142.999 293.076 141.921 291.518 140.993 290.013" stroke="#191A19" stroke-width="1.44275" stroke-linecap="round" stroke-linejoin="round"/>
<path d="M126.412 271.295L126.975 275.013" stroke="#191A19" stroke-width="1.44275" stroke-linecap="round" stroke-linejoin="round"/>
<path d="M128.83 271.445L130.028 276.1" stroke="#191A19" stroke-width="1.44275" stroke-linecap="round" stroke-linejoin="round"/>
<path d="M133.265 271.887L133.394 276.576" stroke="#191A19" stroke-width="1.44275" stroke-linecap="round" stroke-linejoin="round"/>
<path d="M138.584 272.021L139.118 276.811" stroke="#191A19" stroke-width="1.44275" stroke-linecap="round" stroke-linejoin="round"/>
<path d="M135.568 273.44L135.881 276.855" stroke="#191A19" stroke-width="1.44275" stroke-linecap="round" stroke-linejoin="round"/>
<path d="M142.311 272.373L141.426 276.576" stroke="#191A19" stroke-width="1.44275" stroke-linecap="round" stroke-linejoin="round"/>
<path d="M145.283 272.373L145.009 276.181" stroke="#191A19" stroke-width="1.44275" stroke-linecap="round" stroke-linejoin="round"/>
<path d="M147.898 272.373L148.355 275.662" stroke="#191A19" stroke-width="1.44275" stroke-linecap="round" stroke-linejoin="round"/>
<path d="M137.329 72.1279V78.6588H130.803" stroke="#3365E6" stroke-width="1.44275" stroke-linecap="round" stroke-linejoin="round"/>
<path d="M501.768 93.9665L495.353 92.7402L496.584 86.3247" stroke="#3365E6" stroke-width="1.44275" stroke-linecap="round" stroke-linejoin="round"/>
<path d="M122.555 338.989C124.402 338.451 125.57 337.571 125.474 336.917C125.378 336.243 123.877 335.416 122.839 336.07C121.968 336.619 121.718 338.028 122.555 338.989V338.989Z" stroke="#3365E6" stroke-width="0.480918" stroke-miterlimit="10"/>
<path d="M122.439 338.989C120.593 338.451 119.424 337.571 119.52 336.917C119.616 336.243 121.117 335.416 122.156 336.07C123.026 336.619 123.276 338.028 122.439 338.989V338.989Z" stroke="#3365E6" stroke-width="0.480918" stroke-miterlimit="10"/>
<path d="M171.623 338.989C173.47 338.451 174.639 337.571 174.542 336.917C174.446 336.243 172.946 335.416 171.907 336.07C171.036 336.619 170.786 338.028 171.623 338.989V338.989Z" stroke="#3365E6" stroke-width="0.480918" stroke-miterlimit="10"/>
<path d="M171.507 338.989C169.66 338.451 168.491 337.571 168.588 336.917C168.684 336.243 170.184 335.416 171.223 336.07C172.093 336.619 172.344 338.028 171.507 338.989V338.989Z" stroke="#3365E6" stroke-width="0.480918" stroke-miterlimit="10"/>
<path d="M162.769 87.3108C164.676 87.3108 166.222 85.7648 166.222 83.8578C166.222 81.9507 164.676 80.4048 162.769 80.4048C160.862 80.4048 159.316 81.9507 159.316 83.8578C159.316 85.7648 160.862 87.3108 162.769 87.3108Z" stroke="#272927" stroke-width="1.44275" stroke-linecap="round" stroke-linejoin="round"/>
<path d="M176.918 87.3682V80.9095H173.494C173.301 80.2073 173.042 79.534 172.724 78.8944L175.187 76.4321L170.618 71.8634L168.285 74.1958C167.636 73.8255 166.948 73.5178 166.227 73.2821V69.9253H159.768V73.1474C159.018 73.3591 158.302 73.6428 157.628 73.9939L155.291 71.6566L150.722 76.2253L153.011 78.5145C152.646 79.1782 152.353 79.8803 152.127 80.6161H148.784V87.0748H152.122C152.338 87.7866 152.617 88.4647 152.963 89.1043L150.515 91.5474L155.084 96.1161L157.532 93.6682C158.148 93.9952 158.797 94.2694 159.475 94.481V98.0542H165.934V94.5146C166.597 94.3175 167.232 94.0626 167.838 93.75L170.406 96.3181L174.975 91.7494L172.484 89.2582C172.82 88.6571 173.099 88.0222 173.321 87.3586H176.913L176.918 87.3682Z" stroke="#272927" stroke-width="1.44275" stroke-linecap="round" stroke-linejoin="round"/>
<path d="M144.83 102.786C145.032 102.32 145.485 102.007 145.989 102.007H148.158V96.5634H146.182C145.648 96.5634 145.186 96.2268 144.999 95.7314C144.984 95.6929 144.97 95.6593 144.96 95.6208C144.773 95.1495 144.874 94.6157 145.23 94.2598L146.696 92.793L142.844 88.9409L141.522 90.2682C141.147 90.6433 140.579 90.7299 140.098 90.5086C140.041 90.4846 139.978 90.4557 139.92 90.4317C139.454 90.2297 139.146 89.7825 139.146 89.2775V87.3105H133.702V89.1236C133.702 89.6478 133.37 90.1095 132.88 90.297C132.803 90.3259 132.731 90.3548 132.658 90.3836C132.182 90.5808 131.639 90.4846 131.278 90.1191L129.927 88.7725L126.079 92.6199L127.378 93.9184C127.748 94.2887 127.84 94.8417 127.633 95.3226C127.604 95.39 127.575 95.4573 127.546 95.5246C127.354 96.0007 126.897 96.3229 126.382 96.3229H124.444V101.767H126.373C126.892 101.767 127.349 102.089 127.541 102.57C127.561 102.613 127.58 102.661 127.599 102.71C127.801 103.186 127.71 103.734 127.344 104.104L125.906 105.537L129.758 109.385L131.196 107.947C131.562 107.581 132.115 107.49 132.596 107.692C132.615 107.701 132.639 107.711 132.663 107.721C133.139 107.918 133.457 108.37 133.457 108.885V111.02H138.901V108.928C138.901 108.404 139.233 107.947 139.718 107.754C139.723 107.754 139.733 107.745 139.742 107.745C140.218 107.552 140.762 107.644 141.123 108.009L142.676 109.558L146.523 105.71L145.061 104.248C144.686 103.873 144.6 103.311 144.811 102.83C144.821 102.815 144.826 102.801 144.83 102.786ZM136.232 101.964C134.625 101.964 133.322 100.661 133.322 99.0498C133.322 97.4387 134.625 96.1402 136.232 96.1402C137.838 96.1402 139.146 97.4435 139.146 99.0498C139.146 100.656 137.843 101.964 136.232 101.964Z" fill="#00CA64"/>
<path d="M475.986 53.7523V43.3693H470.292C469.98 42.3064 469.566 41.2821 469.066 40.3058L473.202 36.1699L465.858 28.8263L461.852 32.8324C460.89 32.2937 459.866 31.8465 458.798 31.4906V25.71H448.41V31.2165C447.285 31.5243 446.203 31.9378 445.169 32.4572L441.221 28.4993L433.877 35.8429L437.623 39.5893C437.027 40.6328 436.537 41.7438 436.157 42.9028H430.756V53.2858H435.94C436.277 54.4881 436.739 55.6423 437.301 56.7292L433.545 60.4851L440.889 67.8288L444.568 64.1449C445.635 64.7317 446.766 65.2078 447.949 65.5684V70.9451H458.337V65.5781C459.476 65.2366 460.563 64.7797 461.597 64.2315L465.531 68.1654L472.875 60.8218L468.936 56.8831C469.47 55.8876 469.903 54.844 470.239 53.7571H475.986V53.7523ZM453.157 54.012C450.084 54.012 447.598 51.5304 447.598 48.4574C447.598 45.3843 450.084 42.9028 453.157 42.9028C456.23 42.9028 458.712 45.3891 458.712 48.4574C458.712 51.5256 456.225 54.012 453.157 54.012Z" fill="#00CA64"/>
<path d="M477.376 75.7686C476.808 75.5233 476.424 74.9703 476.424 74.3547V71.7048H469.777V74.119C469.777 74.7731 469.368 75.3358 468.762 75.5618C468.714 75.581 468.676 75.5955 468.628 75.6099C468.051 75.8407 467.402 75.7157 466.964 75.2829L465.175 73.4938L460.471 78.1972L462.092 79.8131C462.549 80.27 462.655 80.9625 462.386 81.5492C462.357 81.6214 462.323 81.6983 462.289 81.7656C462.044 82.3331 461.496 82.713 460.88 82.713H458.48V89.3593H460.693C461.332 89.3593 461.895 89.7633 462.126 90.3644C462.159 90.4606 462.198 90.5472 462.232 90.6338C462.472 91.2157 462.357 91.8793 461.909 92.317L460.265 93.9665L464.963 98.6651L466.55 97.0781C467.002 96.626 467.68 96.5154 468.267 96.7655C468.349 96.7991 468.431 96.8376 468.512 96.8713C469.094 97.1069 469.489 97.6648 469.489 98.2948V100.661H476.135V98.3044C476.135 97.6696 476.529 97.1117 477.116 96.8761C477.169 96.852 477.227 96.828 477.284 96.8039C477.866 96.5587 478.535 96.6693 478.987 97.1165L480.737 98.8719L485.436 94.1685L483.681 92.4132C483.233 91.9659 483.123 91.2926 483.368 90.7059C483.378 90.6819 483.392 90.653 483.402 90.6241C483.642 90.0422 484.195 89.6527 484.825 89.6527H487.432V83.0064H484.878C484.238 83.0064 483.681 82.6024 483.445 82.0061C483.44 82.0013 483.435 81.9869 483.435 81.9772C483.2 81.3953 483.31 80.7317 483.758 80.294L485.648 78.3992L480.949 73.7006L479.165 75.4848C478.708 75.9417 478.02 76.0475 477.433 75.7926C477.414 75.783 477.4 75.7734 477.381 75.7686H477.376ZM476.371 86.267C476.371 88.2292 474.779 89.821 472.812 89.821C470.845 89.821 469.258 88.2292 469.258 86.267C469.258 84.3049 470.85 82.7082 472.812 82.7082C474.774 82.7082 476.371 84.3001 476.371 86.267Z" stroke="#272927" stroke-width="1.44275" stroke-linecap="round" stroke-linejoin="round"/>
<path d="M481.257 33.4094C482.272 35.7323 485.1 43.0278 482.762 51.8622C481.151 57.9507 477.823 61.9808 475.986 63.9141C477.958 63.9766 480.574 64.3421 483.33 65.6069C491.683 69.4494 494.199 78.3127 494.627 79.9142" stroke="#272927" stroke-width="1.44275" stroke-linecap="round" stroke-linejoin="round"/>
<path d="M483.33 60.7109C484.412 60.9322 485.72 61.3169 487.096 62.0287C490.78 63.9235 492.694 66.9388 493.497 68.4297" stroke="#272927" stroke-width="1.44275" stroke-linecap="round" stroke-linejoin="round"/>
<path d="M179.832 76.1534L188.955 59.605" stroke="#272927" stroke-width="1.44275" stroke-linecap="round" stroke-linejoin="round"/>
<path d="M184.396 79.8228L197.593 79.188" stroke="#272927" stroke-width="1.44275" stroke-linecap="round" stroke-linejoin="round"/>
<path d="M189.119 73.0851L197.266 67.468" stroke="#272927" stroke-width="1.44275" stroke-linecap="round" stroke-linejoin="round"/>
<path d="M179.962 196.397L166.223 199.263" stroke="#3365E6" stroke-width="1.44275" stroke-linecap="round" stroke-linejoin="round"/>
<path d="M182.179 204.688L176.918 210.902" stroke="#3365E6" stroke-width="1.44275" stroke-linecap="round" stroke-linejoin="round"/>
<path d="M193.192 207.795L190.994 220.9" stroke="#3365E6" stroke-width="1.44275" stroke-linecap="round" stroke-linejoin="round"/>
<path d="M185.122 212.734L183.15 219.611" stroke="#3365E6" stroke-width="1.44275" stroke-linecap="round" stroke-linejoin="round"/>
<path d="M173.09 205.568L168.305 209.007" stroke="#3365E6" stroke-width="1.44275" stroke-linecap="round" stroke-linejoin="round"/>
<path d="M446.482 124.514C453.335 140.899 455.297 150.994 455.629 157.462C455.72 159.222 455.855 163.935 459.033 166.287C461.279 167.946 465.338 168.648 468.089 166.287C471.028 163.762 471.052 158.963 469.118 156.822C466.651 154.086 461.058 155.764 455.629 157.462C450.031 159.213 441.826 162.651 432.9 169.99" stroke="#272927" stroke-width="1.44275" stroke-linecap="round" stroke-linejoin="round"/>
<path d="M462.121 152.499C462.52 152.235 465.675 150.229 469.527 151.47C473.625 152.788 474.957 156.635 475.082 157.025" stroke="#272927" stroke-width="1.44275" stroke-linecap="round" stroke-linejoin="round"/>
<path d="M158.764 117.854C162.538 117.854 165.597 114.794 165.597 111.02C165.597 107.246 162.538 104.186 158.764 104.186C154.989 104.186 151.93 107.246 151.93 111.02C151.93 114.794 154.989 117.854 158.764 117.854Z" fill="white" stroke="#272927" stroke-width="1.44275" stroke-miterlimit="10"/>
<path d="M155.671 111.02H161.855" stroke="#272927" stroke-width="1.44275" stroke-linecap="round" stroke-linejoin="round"/>
<path d="M158.763 107.928V114.112" stroke="#272927" stroke-width="1.44275" stroke-linecap="round" stroke-linejoin="round"/>
<path d="M69.207 343.837H449.267" stroke="#191A19" stroke-width="1.44275" stroke-linecap="round" stroke-linejoin="round"/>
<path d="M361.071 187.144C361.504 186.841 361.489 186.5 362.105 185.471C362.673 184.523 362.793 184.629 363.264 183.86C363.803 182.975 364.019 182.215 364.438 180.748C364.582 180.234 364.765 179.531 364.933 178.69C364.514 178.661 364.231 178.757 364.043 178.853C364.043 178.853 363.538 179.123 362.783 180.844C362.668 180.238 362.495 179.416 362.264 178.449C361.542 175.482 361.187 175.15 360.86 175.016C359.951 174.631 358.782 175.525 358.57 175.694C357.748 176.324 357.44 177.146 357.267 177.617C356.805 178.892 357.128 179.647 357.527 182.354C358.027 185.755 357.854 186.615 358.671 187.144C359.364 187.592 360.431 187.587 361.066 187.144H361.071Z" fill="#5D412E"/>
<path d="M393.143 193.064C392.898 191.742 392.783 190.665 392.725 189.919C392.658 189.049 392.638 188.361 392.494 187.197C392.403 186.486 392.307 185.904 392.234 185.529C392.518 185.557 392.927 185.644 393.312 185.918C394.052 186.452 394.389 187.462 394.221 188.525C394.341 188.294 394.519 187.943 394.711 187.5C395.283 186.183 395.23 185.798 395.596 185.125C395.745 184.85 396.534 183.398 397.621 183.403C398.592 183.408 399.39 184.571 399.669 185.5C399.915 186.312 399.684 186.673 399.251 189.087C398.818 191.492 398.967 191.598 398.64 192.507C398.347 193.324 397.803 194.425 396.717 195.58" fill="#5D412E"/>
<path d="M331.143 298.655C331.282 299.617 334.413 300.396 336.082 300.617C338.203 300.896 338.568 300.348 339.997 300.506C344.282 300.992 344.825 306.369 349.35 307.672C351.212 308.206 351.255 307.34 355.102 307.133C360.565 306.845 362.802 308.475 367.928 309.091C371.511 309.524 374.94 309.783 378.908 308.437C380.961 307.739 385.184 306.311 385.718 303.719C386.516 299.843 378.812 294.644 373.151 292.244C354.208 284.213 330.744 295.87 331.148 298.655H331.143Z" fill="#370A4B"/>
<path d="M339.751 295C339.203 296.51 338.313 299.001 337.275 302.113C333.798 312.534 333.273 316.079 330.426 321.325C329.426 323.167 327.762 325.913 325.146 328.986C325.059 329.14 324.333 330.487 324.954 331.858C325.531 333.132 327.026 333.892 328.604 333.623C331.153 331.223 333.754 328.544 336.351 325.562C343.786 317.021 348.985 308.456 352.645 301.055L354.997 296.318" fill="#5D412E"/>
<path d="M359.233 291.485C360.753 296.885 362.278 302.281 363.797 307.682C363.528 309.606 363.138 312.64 362.821 316.377C362.167 324.023 362.374 327.953 362.013 335.258C361.854 338.513 361.542 343.318 360.849 349.209C361.359 350.065 362.263 350.599 363.22 350.589C364.394 350.575 365.461 349.738 365.803 348.521C370.732 331.636 374.185 319.089 375.339 314.689C375.339 314.689 375.835 311.765 376.393 307.417C376.628 305.59 376.494 303.738 375.984 301.969C375.844 301.488 375.7 301.007 375.556 300.521C374.873 298.241 373.695 294.99 372.276 290.729" fill="#5D412E"/>
<path d="M321.473 332.026C323.579 329.193 324.599 328.784 325.142 328.986C325.661 329.179 325.633 329.886 326.652 331.078C327.503 332.074 327.845 331.958 328.263 332.555C329.134 333.8 328.052 334.902 327.989 337.811C327.941 339.927 328.499 340.206 328.456 342.919C328.436 344.082 328.321 345.03 328.225 345.645" fill="#C4FA36"/>
<path d="M347.721 257.44C346.191 262.389 343.739 269.41 339.891 277.47C334.635 288.498 329.071 296.659 331.143 298.655C332.827 300.28 337.131 295.481 342.426 297.275C347.461 298.977 347.879 304.767 351.635 304.873C355.242 304.974 356.353 299.684 359.926 299.809C364.115 299.953 365.418 307.34 368.905 307.177C372.387 307.013 372.983 299.559 377.196 298.886C381.217 298.241 384.497 304.44 385.718 303.719C387.315 302.776 381.457 292.273 378.812 280C376.917 271.223 377.11 263.562 377.663 258.123" fill="#C4FA36"/>
<path d="M362.037 188.034C362.061 187.765 362.114 186.741 361.398 185.937C360.46 184.889 358.753 184.846 357.877 185.5C357.387 185.865 357.223 186.404 357.18 186.548C356.204 189.602 350.231 194.748 345.705 202.722C344.974 204.006 343.907 206.03 342.844 208.69C342.7 212.273 342.844 216.918 343.888 222.223C344.931 227.551 346.561 231.928 348.052 235.198C347.466 242.917 346.879 250.635 346.287 258.359C349.394 261.35 352.332 263.197 354.338 264.293C358.128 266.366 363.591 269.353 369.857 268.054C371.42 267.732 374.022 267.193 376.09 265.058C378.235 262.841 378.629 260.042 379.322 254.536C379.61 252.232 379.908 248.952 379.851 244.956C382.544 242.835 385.54 240.195 388.574 236.953C391.422 233.919 393.74 230.966 395.61 228.297C396.745 224.209 397.438 220.66 397.875 217.904C399.477 207.819 397.592 208.954 398.943 201.25C399.184 199.87 399.674 197.379 398.404 195.123C398.236 194.82 397.154 192.776 395.052 192.42C394.822 192.382 393.201 191.978 392.523 192.771C392.157 193.204 392.22 193.805 392.229 193.945C392.316 195.224 391.123 202.52 387.771 219.76C386.766 220.838 385.117 222.612 383.082 224.829C378.821 229.48 378.119 230.365 376.552 230.961C374.051 231.918 371.781 231.197 367.674 229.903C362.783 228.359 359.152 227.215 356.036 223.968C350.693 218.395 350.87 210.801 350.981 208.805C354.665 201.88 358.349 194.95 362.028 188.025L362.037 188.034Z" fill="#4BCDBC"/>
<path d="M322.011 331.886C320.438 331.992 318.986 334.728 319.457 336.82C319.722 337.994 320.395 338.1 321.487 339.547C324.146 343.063 323.06 346.227 325.084 347.035C325.988 347.396 327.147 347.136 327.696 346.511C328.359 345.761 327.96 344.698 327.171 341.634C325.926 336.782 325.931 335.575 324.56 333.796C323.853 332.882 323.031 331.814 322.006 331.881L322.011 331.886Z" fill="#00CA64"/>
<path d="M376.051 352.316V353.682C371.001 353.653 365.956 353.619 360.911 353.59C360.815 353.129 360.743 352.705 360.676 352.311H376.051V352.316Z" fill="#00CA64"/>
<path d="M376.051 351.993C376.07 352.128 376.061 352.243 376.051 352.32H360.676C360.142 349.093 360.484 348.165 360.94 347.959C361.46 347.723 362.056 348.449 363.379 348.521C364.499 348.579 365.432 348.122 366.019 347.752C367.832 348.189 369.347 348.622 370.467 348.968C374.796 350.296 375.931 351.08 376.051 351.998V351.993Z" fill="#C4FA36"/>
<path d="M350.173 261.644L337.559 297.193" stroke="#C4FA36" stroke-width="1.44275" stroke-linecap="round" stroke-linejoin="round"/>
<path d="M355.699 264.447L347.441 301.579" stroke="#C4FA36" stroke-width="1.44275" stroke-linecap="round" stroke-linejoin="round"/>
<path d="M361.773 267.631L358.455 300.579" stroke="#C4FA36" stroke-width="1.44275" stroke-linecap="round" stroke-linejoin="round"/>
<path d="M369.857 268.064L368.905 307.177" stroke="#C4FA36" stroke-width="1.44275" stroke-linecap="round" stroke-linejoin="round"/>
<path d="M374.787 266.174L381.126 300.17" stroke="#C4FA36" stroke-width="1.44275" stroke-linecap="round" stroke-linejoin="round"/>
<path d="M346.287 258.368C348.028 259.725 350.635 261.605 354.025 263.471C359.835 266.669 364.552 269.271 369.857 268.068C370.747 267.866 374.142 267.097 376.325 264.207C377.436 262.735 377.778 261.105 378.461 257.844C378.922 255.642 379.129 253.333 379.533 248.813C379.677 247.182 379.783 245.845 379.85 244.97" stroke="#191A19" stroke-width="1.44275" stroke-linecap="round" stroke-linejoin="round"/>
<path d="M371.617 217.245C372.526 217.548 372.997 218.803 373.459 220.03C373.694 220.65 374.065 221.684 373.978 223.05C373.867 224.738 373.117 225.916 372.8 226.402C371.583 228.258 368.885 230.571 367.183 229.845C365.307 229.047 365.144 224.776 366.38 221.823C367.462 219.236 370.02 216.711 371.617 217.245Z" fill="#5D412E"/>
<path d="M365.5 215.61C365.548 215.36 365.683 214.446 365.125 213.677C364.379 212.652 362.999 212.72 362.566 212.739C361.302 212.801 359.46 213.556 359.012 215.297C358.575 216.995 359.642 218.948 360.946 219.226C361.302 219.303 361.629 219.246 361.884 219.164C362.061 219.909 362.172 220.934 361.633 221.722C360.638 223.18 358.469 222.304 357.517 223.593C356.435 225.06 358.608 227.037 357.579 229.331C356.824 231.014 355.324 230.701 354.708 232.202C353.838 234.332 355.665 237.905 358.575 239.31C361.292 240.623 364.947 240.036 366.183 238.189C366.789 237.28 366.303 236.823 366.996 235.381C368.078 233.12 369.698 233.361 370.3 231.701C371.04 229.667 368.833 228.691 369.362 225.964C369.722 224.103 370.925 223.665 370.857 221.973C370.809 220.717 370.102 219.712 369.487 219.039C370.175 219.164 372.916 219.602 374.599 217.981C374.873 217.716 375.604 217.014 375.474 216.235C375.311 215.264 373.916 214.816 373.478 214.677C372.117 214.239 370.891 214.509 370.175 214.677C368.554 215.057 367.808 215.754 366.12 215.672C365.851 215.658 365.63 215.629 365.495 215.61H365.5Z" fill="#17100C"/>
<path d="M366.313 215.134C366.058 215.759 365.519 216.827 364.456 217.798C362.999 219.125 361.402 219.496 360.71 219.611" stroke="#C4FA36" stroke-width="1.44275" stroke-linecap="round" stroke-linejoin="round"/>
<path d="M388.888 354.73H334.674" stroke="#191A19" stroke-width="1.44275" stroke-linecap="round" stroke-linejoin="round"/>
<path d="M323.698 354.73H282.051" stroke="#191A19" stroke-width="1.44275" stroke-linecap="round" stroke-linejoin="round"/>
<path d="M448.607 372.279H363.071" stroke="#191A19" stroke-width="1.44275" stroke-linecap="round" stroke-linejoin="round"/>
<path d="M179.548 354.73H135.573" stroke="#191A19" stroke-width="1.44275" stroke-linecap="round" stroke-linejoin="round"/>
<path d="M222.133 75.2925C222.09 76.8795 221.96 78.6397 221.7 80.5297C221.407 82.6553 220.998 84.5742 220.551 86.267" stroke="#191A19" stroke-width="1.44275" stroke-linecap="round" stroke-linejoin="round"/>
<path d="M130.74 295.76C131.971 297.275 133.462 299.434 134.66 302.257C135.482 304.2 135.973 305.994 136.271 307.489" stroke="#191A19" stroke-width="1.44275" stroke-linecap="round" stroke-linejoin="round"/>
<path opacity="0.5" d="M352.029 243.777C352.775 243.777 353.381 242.936 353.381 241.897C353.381 240.858 352.775 240.017 352.029 240.017C351.283 240.017 350.678 240.858 350.678 241.897C350.678 242.936 351.283 243.777 352.029 243.777Z" fill="#C4FA36"/>
<path opacity="0.5" d="M384.877 230.485C385.623 230.485 386.228 229.643 386.228 228.604C386.228 227.566 385.623 226.724 384.877 226.724C384.13 226.724 383.525 227.566 383.525 228.604C383.525 229.643 384.13 230.485 384.877 230.485Z" fill="#C4FA36"/>
<path opacity="0.5" d="M360.711 256.666C361.457 256.666 362.062 255.824 362.062 254.785C362.062 253.747 361.457 252.905 360.711 252.905C359.964 252.905 359.359 253.747 359.359 254.785C359.359 255.824 359.964 256.666 360.711 256.666Z" fill="#C4FA36"/>
<path opacity="0.5" d="M373.271 241.897C374.018 241.897 374.623 241.055 374.623 240.017C374.623 238.978 374.018 238.136 373.271 238.136C372.525 238.136 371.92 238.978 371.92 240.017C371.92 241.055 372.525 241.897 373.271 241.897Z" fill="#C4FA36"/>
<path opacity="0.5" d="M395.533 217.014C396.279 217.014 396.884 216.172 396.884 215.134C396.884 214.095 396.279 213.253 395.533 213.253C394.787 213.253 394.182 214.095 394.182 215.134C394.182 216.172 394.787 217.014 395.533 217.014Z" fill="#C4FA36"/>
<path opacity="0.5" d="M372.641 264.75C373.388 264.75 373.993 263.908 373.993 262.87C373.993 261.831 373.388 260.989 372.641 260.989C371.895 260.989 371.29 261.831 371.29 262.87C371.29 263.908 371.895 264.75 372.641 264.75Z" fill="#C4FA36"/>
<path opacity="0.5" d="M346.773 223.372C347.52 223.372 348.125 222.53 348.125 221.491C348.125 220.453 347.52 219.611 346.773 219.611C346.027 219.611 345.422 220.453 345.422 221.491C345.422 222.53 346.027 223.372 346.773 223.372Z" fill="#C4FA36"/>
<path opacity="0.5" d="M350.125 204.073C350.871 204.073 351.476 203.231 351.476 202.192C351.476 201.154 350.871 200.312 350.125 200.312C349.378 200.312 348.773 201.154 348.773 202.192C348.773 203.231 349.378 204.073 350.125 204.073Z" fill="#C4FA36"/>
</svg>
